# xmcd CD database generated by RipIT
#
# Track frame offsets:
# 150
# 13641
# 33272
# 52139
# 76727
# 96905
# 117442
# 135122
# 162387
# 178933
# 202186
# 215663
# 237050
#
# Disc length: 3665 seconds
#
# Revision: 0
# Processed by: cddbd v1.5.2PL0 Copyright (c) Steve Scherf et al.
# Submitted via: RipIT 3.6.0 www.suwald.com/ripit/ripit.html on 2010-01-24 at 22:29
#
DISCID=b00e4f0d
DTITLE=Jason Falloon - Peace Of Mind
DYEAR=2009
DGENRE=Blues
TTITLE0=Peace Train
TTITLE1=Come Together
TTITLE2=What are you Gonna do
TTITLE3=Heart of Gold
TTITLE4=Space Oddity
TTITLE5=Catch the Wind
TTITLE6=As Time goes By
TTITLE7=No Woman No Cry
TTITLE8=Sara
TTITLE9=So Long, marianne
TTITLE10=Venice in Italy
TTITLE11=Delilah
TTITLE12=Mrs. Robinson
EXTD=
EXTT0=
EXTT1=
EXTT2=
EXTT3=
EXTT4=
EXTT5=
EXTT6=
EXTT7=
EXTT8=
EXTT9=
EXTT10=
EXTT11=
EXTT12=
PLAYORDER=
